<svg xmlns="http://www.w3.org/2000/svg" width="100" height="100" viewBox="0 0 100 100"><defs><style>.cls-1{fill:#c39052;fill-rule:evenodd;}.cls-2,.cls-3{fill:none;stroke:#81949c;}.cls-2{stroke-linecap:round;stroke-linejoin:round;}.cls-3{stroke-miterlimit:10;}</style></defs><g id="Search-Note-Share"><g id="dream-watch"><g id="spot"><path id="Fill-5" class="cls-1" d="M26.476,3.158a.876.876,0,0,1-.384-.079.962.962,0,0,1-.316-.207,1,1,0,0,1,0-1.4.978.978,0,0,1,.316-.207.956.956,0,0,1,.571-.059.589.589,0,0,1,.188.059.56.56,0,0,1,.167.089.935.935,0,0,1,.148.118.977.977,0,0,1,0,1.4.629.629,0,0,1-.148.119.535.535,0,0,1-.167.088.589.589,0,0,1-.188.059,1.059,1.059,0,0,1-.187.02M24.032,10.5a.985.985,0,1,1,1.232-.67,1,1,0,0,1-.956.71,1.362,1.362,0,0,1-.276-.04M21.874,17.87a.986.986,0,0,1-.67-1.222,1,1,0,0,1,1.232-.67A.986.986,0,0,1,23.1,17.2a.97.97,0,0,1-.946.71.96.96,0,0,1-.276-.04m-2.158,7.381a.987.987,0,1,1,.276.039.925.925,0,0,1-.276-.039m-2.158,7.371a.987.987,0,1,1,.276.039.894.894,0,0,1-.276-.039M15.4,40a.983.983,0,1,1,.276.04A.891.891,0,0,1,15.4,40m-2.158,7.381a.985.985,0,1,1,1.222-.67h0a1,1,0,0,1-.946.709.835.835,0,0,1-.276-.039m-2.158,7.371a.987.987,0,1,1,.276.039.861.861,0,0,1-.276-.039m-2.158,7.38a.985.985,0,1,1,1.222-.67h0a1,1,0,0,1-.946.71.832.832,0,0,1-.276-.04M6.758,69.505a.985.985,0,1,1,.407-1.928.921.921,0,0,1,.155.046.987.987,0,0,1,.67,1.222,1,1,0,0,1-.946.71.96.96,0,0,1-.286-.05M4.6,76.886a.985.985,0,1,1,1.222-.67.969.969,0,0,1-.946.709.925.925,0,0,1-.276-.039M2.627,83.673a.985.985,0,1,1,1.226-.682l0,.012a.985.985,0,0,1-.946.709,1.293,1.293,0,0,1-.276-.039"/></g><g id="spot-2" data-name="spot"><path id="Fill-5-2" data-name="Fill-5" class="cls-1" d="M73.191,3.158A1.08,1.08,0,0,1,73,3.138a.591.591,0,0,1-.187-.059.54.54,0,0,1-.168-.088.6.6,0,0,1-.147-.119,1,1,0,0,1-.3-.7,1,1,0,0,1,.3-.7.927.927,0,0,1,.147-.118.565.565,0,0,1,.168-.089A.591.591,0,0,1,73,1.207a.959.959,0,0,1,.572.059.985.985,0,0,1,.315.207,1,1,0,0,1,0,1.4.968.968,0,0,1-.315.207.88.88,0,0,1-.385.079M75.635,10.5a1.352,1.352,0,0,1-.276.04,1,1,0,0,1-.956-.71.985.985,0,1,1,1.232.67m2.158,7.371a.95.95,0,0,1-.276.04.971.971,0,0,1-.946-.71.986.986,0,0,1,.661-1.222,1,1,0,0,1,1.231.67.984.984,0,0,1-.67,1.222m2.158,7.381a.916.916,0,0,1-.276.039.983.983,0,1,1,.276-.039m2.158,7.371a.886.886,0,0,1-.276.039.984.984,0,1,1,.276-.039M84.267,40a.887.887,0,0,1-.276.04.987.987,0,1,1,.276-.04m2.158,7.381a.831.831,0,0,1-.276.039,1,1,0,0,1-.946-.709h0a.985.985,0,1,1,1.222.67m2.158,7.371a.858.858,0,0,1-.276.039.983.983,0,1,1,.276-.039m2.158,7.38a.832.832,0,0,1-.276.04,1,1,0,0,1-.946-.71h0a.985.985,0,1,1,1.222.67m2.168,7.371a.955.955,0,0,1-.286.05,1,1,0,0,1-.945-.71.985.985,0,0,1,.67-1.222.921.921,0,0,1,.155-.046.985.985,0,1,1,.406,1.928m2.158,7.381a.916.916,0,0,1-.276.039.97.97,0,0,1-.946-.709.985.985,0,1,1,1.222.67m1.973,6.787a1.284,1.284,0,0,1-.276.039A.986.986,0,0,1,95.818,83l0-.012a.984.984,0,1,1,1.225.682"/></g><path class="cls-2" d="M60.366,85.207c31.95,2.456,38.729,4.812,38.759,6.573.059,3.414-25.738,7.395-49.312,7.408C26.267,99.2.453,95.255.5,91.78c.023-1.718,6.568-4.052,35.764-6.581"/><path class="cls-2" d="M28.894,40.03a20.907,20.907,0,1,0,26.9-12.266A20.847,20.847,0,0,0,28.894,40.03Z"/><path class="cls-2" d="M50.516,45.983a2.488,2.488,0,1,1-3.2-1.459A2.481,2.481,0,0,1,50.516,45.983Z"/><line class="cls-2" x1="58.693" y1="36.625" x2="50.066" y2="45.233"/><line class="cls-2" x1="46.351" y1="45.168" x2="42.286" y2="40.789"/><path class="cls-2" d="M73.675,43.365l1.435-.007a2.05,2.05,0,0,1,2.095,2v3a2.05,2.05,0,0,1-2.095,2h-1.3a25.418,25.418,0,0,0-.134-7Z"/><path class="cls-2" d="M36.264,16.468v8.241a25.746,25.746,0,0,1,24.1,0V16.468h3.143l4.356,14.258a25.647,25.647,0,0,1,0,33.243L63.509,78.22H60.366V69.979a25.635,25.635,0,0,1-21.011,1.389,25.99,25.99,0,0,1-3.091-1.386V78.22H33.121L28.765,63.962a25.65,25.65,0,0,1,0-33.243l4.354-14.251Z"/><path class="cls-2" d="M36.264,69.98a25.765,25.765,0,0,0,3.092,1.4,25.355,25.355,0,0,0,21.01-1.4V94.21h-24.1Z"/><circle class="cls-3" cx="48.315" cy="78.861" r="0.5"/><circle class="cls-3" cx="48.315" cy="86.177" r="0.5"/><path class="cls-2" d="M60.366,24.735a25.77,25.77,0,0,0-3.092-1.4,25.355,25.355,0,0,0-21.01,1.4V.5h24.1Z"/><circle class="cls-3" cx="48.315" cy="15.854" r="0.5"/><circle class="cls-3" cx="48.315" cy="8.537" r="0.5"/></g></g></svg>