<svg height="100" viewBox="0 0 100 100" width="100" xmlns="http://www.w3.org/2000/svg"><path d="m38.448 22.893 19.401-22.193 25.5 28.778v-7.852h8v16.881l8 9.028h-8v34.877h-18.7" fill="none" stroke="#81949c" stroke-linecap="round" stroke-linejoin="round"/><path d="m42.213 37.02a24.775 24.775 0 0 0 -3.193-.515 24.434 24.434 0 0 0 -19.02 6.47l-5.92-22.094 22.216-5.953z" fill="none" stroke="#81949c" stroke-linecap="round" stroke-linejoin="round"/><path d="m39.191 60.652a2.5 2.5 0 1 1 -2.726-2.252 2.5 2.5 0 0 1 2.726 2.252z" fill="none" stroke="#81949c" stroke-linecap="round" stroke-linejoin="round"/><path d="m55.052 67.5h-36.693a19.492 19.492 0 1 1 36.688 0z" fill="none" stroke="#81949c" stroke-linecap="round" stroke-linejoin="round"/><path d="m27.252 25.632a1 1 0 1 1 .707-1.225 1 1 0 0 1 -.707 1.225z" fill="#81949c"/><path d="m29.068 32.393a1 1 0 1 1 .706-1.225 1 1 0 0 1 -.706 1.225z" fill="#81949c"/><g fill="none" stroke-linecap="round" stroke-linejoin="round"><path d="m46.256 51.122-7.54 8.3z" stroke="#81949c"/><path d="m34.49 59.725-5.682-3.388z" stroke="#81949c"/><path d="m59.218 51.232 1.21-.324a2 2 0 0 1 2.449 1.414l.775 2.9a2 2 0 0 1 -1.414 2.449l-1.209.329a24.365 24.365 0 0 0 -1.811-6.768z" stroke="#81949c"/><path d="m64.322 47.142 3.288-5.442" stroke="#c39052"/><path d="m67.514 51.4 12.057-6.522" stroke="#c39052"/><path d="m68.61 56.668h5.481" stroke="#c39052"/><path d="m13.111 67.5a24.608 24.608 0 0 1 1.462-17.126l.488-14.228 2.9-.776 2.039 7.605a24.435 24.435 0 0 1 19.024-6.47 24.788 24.788 0 0 1 3.192.515l-2.037-7.6 2.9-.776 7.54 12.083a24.537 24.537 0 0 1 9.734 26.558l-.7.215z" stroke="#81949c"/><path d="m59.651 67.5 13-4 7 10-7 2.154v19.846l-13 4h-53v-21h46z" stroke="#81949c"/><path d="m59.651 67.5 13-4 7 10-13 4z" stroke="#81949c"/><path d="m6.651 67.5h53l-7 11h-52z" stroke="#81949c"/><path d="m59.651 67.5v32" stroke="#81949c"/><path d="m72.651 63.5h-11.454" stroke="#81949c"/><path d="m6.651 67.5 5.558-2.859" stroke="#81949c"/></g></svg>