<svg xmlns="http://www.w3.org/2000/svg" width="48" height="48.002" viewBox="0 0 48 48.002">
  <g id="customer-support" transform="translate(-0.274 0)">
    <path id="Path_212" data-name="Path 212" d="M.416,4.472l3.2,5.6a.8.8,0,0,0,.5.379L7.1,11.2,17.335,21.431,18.466,20.3,8.07,9.9A.8.8,0,0,0,7.7,9.694L4.831,8.975,2.108,4.206,4.443,1.871,9.214,4.6l.72,2.868a.8.8,0,0,0,.21.372l10.4,10.4L21.67,17.1,11.434,6.866l-.746-2.983a.8.8,0,0,0-.379-.5l-5.6-3.2a.8.8,0,0,0-.96.129l-3.2,3.2a.8.8,0,0,0-.137.961Zm0,0" transform="translate(-0.037 -0.073)" fill="#fff"/>
    <path id="Path_213" data-name="Path 213" d="M192.7,174.85l-17.592,17.593-1.131-1.131,17.593-17.592Zm0,0" transform="translate(-159.079 -159.09)" fill="#fff"/>
    <path id="Path_214" data-name="Path 214" d="M56.435,399.223a.8.8,0,0,0-.686-.388h-4.8a.8.8,0,0,0-.685.388l-2.4,4a.8.8,0,0,0,0,.824l2.4,4a.8.8,0,0,0,.685.388h4.8a.8.8,0,0,0,.686-.388l2.4-4a.8.8,0,0,0,0-.824ZM55.3,406.832H51.4l-1.919-3.2,1.919-3.2H55.3l1.919,3.2Zm0,0" transform="translate(-43.481 -365.248)" fill="#fff"/>
    <path id="Path_215" data-name="Path 215" d="M38.657,19.193a9.563,9.563,0,0,0,9.3-11.915.8.8,0,0,0-1.341-.373L41.64,11.88l-3.949-1.316L36.374,6.616l4.978-4.979A.8.8,0,0,0,40.976.295,9.566,9.566,0,0,0,29.062,9.6a9.386,9.386,0,0,0,.194,1.874L11.743,28.984a9.434,9.434,0,0,0-1.873-.194,9.6,9.6,0,1,0,9.6,9.6,9.41,9.41,0,0,0-.194-1.874l4.193-4.193L25.3,34.152a.8.8,0,0,0,1.131,0l.4-.4a.9.9,0,0,1,1.27,1.267l0,0-.4.4a.8.8,0,0,0,0,1.131l9.539,9.539A6.454,6.454,0,1,0,46.4,37l-.041-.041-9.539-9.539a.8.8,0,0,0-1.131,0l-.4.4a.9.9,0,0,1-1.27-1.266l0,0,.4-.4a.8.8,0,0,0,0-1.131l-1.834-1.834L36.784,19a9.41,9.41,0,0,0,1.873.194ZM41.8,46.382a4.859,4.859,0,0,1-1.7-.31l6.245-6.246A4.849,4.849,0,0,1,41.8,46.382ZM32.74,25.6a2.5,2.5,0,0,0,3.518,3.514l8.974,8.982c.1.1.188.2.277.305l-6.837,6.837c-.1-.088-.208-.179-.306-.277l-8.981-8.982a2.5,2.5,0,0,0-3.519-3.514l-1.279-1.279,6.873-6.863Zm3.229-8.043L17.829,35.693a.8.8,0,0,0-.211.76A8.05,8.05,0,1,1,11.8,30.637a.807.807,0,0,0,.76-.211L30.7,12.289a.8.8,0,0,0,.21-.76,7.958,7.958,0,0,1,8.2-9.916l-4.218,4.22a.8.8,0,0,0-.193.818l1.6,4.8a.8.8,0,0,0,.506.505l4.8,1.6a.8.8,0,0,0,.818-.193l4.218-4.218c.01.153.014.3.014.454a7.955,7.955,0,0,1-9.929,7.748.8.8,0,0,0-.76.21h0Zm0,0" transform="translate(0 0)" fill="#fff"/>
    <path id="Path_216" data-name="Path 216" d="M392.018,390.621l-1.131,1.131-8-8,1.131-1.131Zm0,0" transform="translate(-350.395 -350.403)" fill="#fff"/>
  </g>
</svg>
