<svg xmlns="http://www.w3.org/2000/svg" width="48" height="24.888" viewBox="0 0 48 24.888">
  <g id="forever" transform="translate(0 -123.261)">
    <path id="Path_219" data-name="Path 219" d="M35.556,123.261c-2.933,0-6.331,1.625-10.386,4.967q-.577.475-1.169,1c-.394-.346-.785-.678-1.169-1-4.056-3.342-7.453-4.967-10.386-4.967a12.444,12.444,0,0,0,0,24.888c2.933,0,6.331-1.625,10.386-4.967q.577-.475,1.169-1c.394.346.785.678,1.169,1,4.056,3.342,7.453,4.967,10.386,4.967a12.444,12.444,0,0,0,0-24.888Zm0,22.11c-2.231,0-5.131-1.458-8.62-4.333-.643-.53-7.7-7.4-8.266-7.866-3.791-3.113-5.617-3.45-6.226-3.45a5.983,5.983,0,0,0,0,11.965c.613,0,2.453-.34,6.277-3.492.225-.185.453-.379.683-.576l2.585,2.634c-.312.271-.621.534-.925.785-3.489,2.875-6.389,4.333-8.62,4.333a9.666,9.666,0,0,1,0-19.332c2.231,0,5.131,1.458,8.62,4.333.643.53,6.529,6.361,6.529,6.361.569.518,1.136,1.01,1.686,1.464,3.824,3.151,5.664,3.492,6.277,3.492a5.983,5.983,0,1,0,0-11.965c-.609,0-2.435.336-6.226,3.45-.242.2-.487.406-.734.619l-2.585-2.635c.312-.271.621-.534.926-.785,3.489-2.875,6.389-4.333,8.62-4.333a9.666,9.666,0,1,1,0,19.332Zm-18.186-9.666q-.209.177-.415.347c-2.992,2.466-4.377,2.818-4.571,2.857a3.2,3.2,0,0,1,0-6.408c.193.039,1.565.388,4.523,2.818q.229.188.463.386Zm13.261,0q.233-.2.462-.386c2.959-2.43,4.33-2.779,4.523-2.818a3.2,3.2,0,0,1,0,6.408c-.194-.039-1.579-.391-4.571-2.857q-.206-.169-.415-.347Z" fill="#fff"/>
  </g>
</svg>
