<svg xmlns="http://www.w3.org/2000/svg" width="48" height="47.923" viewBox="0 0 48 47.923">
  <g id="magnet" transform="translate(0 -0.408)">
    <path id="Path_220" data-name="Path 220" d="M40.292,46.619a2.83,2.83,0,0,0-4.005,0L25.268,57.637c-5.08,5.08-13.45,1.812-13.28-5.146a8.288,8.288,0,0,1,2.467-5.668L25.473,35.8a2.83,2.83,0,0,0,0-4.005l-4.406-4.406a2.83,2.83,0,0,0-4.005,0L5.723,38.733A19.489,19.489,0,0,0,19.47,72.018a19.628,19.628,0,0,0,14-5.759L44.7,55.029a2.83,2.83,0,0,0,0-4.005ZM19.065,29.4,23.47,33.8l-5.518,5.518-4.406-4.406Zm12.4,34.859a16.709,16.709,0,1,1-23.74-23.52l3.818-3.818,4.406,4.406-3.5,3.5a10.706,10.706,0,0,0-.32,15.139,10.724,10.724,0,0,0,15.139-.32l3.5-3.5,4.406,4.406Zm5.711-5.711-4.406-4.406,5.518-5.518,4.406,4.406Z" transform="translate(0 -23.686)" fill="#fff"/>
    <path id="Path_221" data-name="Path 221" d="M369.1,68.342a4.913,4.913,0,0,1,3.241,3.228,1.416,1.416,0,1,0,2.741-.71A7.733,7.733,0,0,0,369.79,65.6a1.416,1.416,0,1,0-.694,2.746Z" transform="translate(-333.284 -58.995)" fill="#fff"/>
    <path id="Path_222" data-name="Path 222" d="M398.93,10.01a14.128,14.128,0,0,0-9.6-9.559,1.416,1.416,0,1,0-.694,2.746,11.309,11.309,0,0,1,7.557,7.523,1.416,1.416,0,0,0,2.742-.71Z" transform="translate(-350.975)" fill="#fff"/>
  </g>
</svg>
