<svg xmlns="http://www.w3.org/2000/svg" width="48" height="53.426" viewBox="0 0 48 53.426">
  <g id="shield_1_" data-name="shield (1)" transform="translate(-25.999 0)">
    <g id="Group_1053" data-name="Group 1053" transform="translate(25.999 0)">
      <g id="Group_1052" data-name="Group 1052" transform="translate(0 0)">
        <path id="Path_225" data-name="Path 225" d="M73.217,9.247A97.323,97.323,0,0,1,50.508.132a1.043,1.043,0,0,0-1.018,0A94.661,94.661,0,0,1,26.781,9.247,1.044,1.044,0,0,0,26,10.257V21.776a32.286,32.286,0,0,0,10.61,24.172C41.8,50.763,47.822,53.425,50,53.425s8.2-2.663,13.39-7.477A32.286,32.286,0,0,0,74,21.776V10.257A1.044,1.044,0,0,0,73.217,9.247ZM61.97,44.418a34.052,34.052,0,0,1-7.508,5.292A13.453,13.453,0,0,1,50,51.339a13.45,13.45,0,0,1-4.464-1.628,34.056,34.056,0,0,1-7.508-5.292,30.246,30.246,0,0,1-9.942-22.642V11.061A96.589,96.589,0,0,0,50,2.236a99.6,99.6,0,0,0,21.913,8.825V21.776h0A30.246,30.246,0,0,1,61.97,44.418Z" transform="translate(-25.999 0)" fill="#fff"/>
      </g>
    </g>
    <g id="Group_1055" data-name="Group 1055" transform="translate(29.651 4.159)">
      <g id="Group_1054" data-name="Group 1054">
        <path id="Path_226" data-name="Path 226" d="M100.942,47.743a100.638,100.638,0,0,1-19.1-7.757,1.043,1.043,0,0,0-.981,0,99.451,99.451,0,0,1-19.1,7.758,1.044,1.044,0,0,0-.754,1v8.734a29.009,29.009,0,0,0,2.3,11.5,29.329,29.329,0,0,0,6.721,9.593,32.928,32.928,0,0,0,7.03,5.156,18.88,18.88,0,0,0,4.112,1.713,1.038,1.038,0,0,0,.379,0,18.884,18.884,0,0,0,4.112-1.713,32.93,32.93,0,0,0,7.029-5.156A29.327,29.327,0,0,0,99.4,68.983a29,29,0,0,0,2.3-11.5V48.745A1.044,1.044,0,0,0,100.942,47.743Zm-1.335,9.738A26.26,26.26,0,0,1,91.23,77.071,30.813,30.813,0,0,1,84.653,81.9a18.53,18.53,0,0,1-3.307,1.454A18.507,18.507,0,0,1,78.039,81.9a30.806,30.806,0,0,1-6.577-4.826,26.26,26.26,0,0,1-8.377-19.589V49.528a101.581,101.581,0,0,0,18.263-7.441,102.758,102.758,0,0,0,18.259,7.437Z" transform="translate(-60.998 -39.864)" fill="#fff"/>
      </g>
    </g>
    <g id="Group_1057" data-name="Group 1057" transform="translate(39.506 37.025)">
      <g id="Group_1056" data-name="Group 1056" transform="translate(0)">
        <path id="Path_227" data-name="Path 227" d="M157.276,355.193l-.025-.027a1.043,1.043,0,1,0-1.532,1.417l.013.014a1.044,1.044,0,0,0,1.544-1.4Z" transform="translate(-155.441 -354.831)" fill="#fff"/>
      </g>
    </g>
    <g id="Group_1059" data-name="Group 1059" transform="translate(41.633 39.141)">
      <g id="Group_1058" data-name="Group 1058" transform="translate(0)">
        <path id="Path_228" data-name="Path 228" d="M181.161,378.087a27.176,27.176,0,0,1-3.6-2.718,1.044,1.044,0,0,0-1.391,1.556,29.271,29.271,0,0,0,3.874,2.927,1.044,1.044,0,0,0,1.114-1.765Z" transform="translate(-175.825 -375.104)" fill="#fff"/>
      </g>
    </g>
    <g id="Group_1061" data-name="Group 1061" transform="translate(39.907 17.347)">
      <g id="Group_1060" data-name="Group 1060" transform="translate(0)">
        <path id="Path_229" data-name="Path 229" d="M178.51,167.2a3.273,3.273,0,0,0-4.619,0l-6.63,6.63-2.406-2.406a3.266,3.266,0,0,0-4.619,4.619l4.716,4.715a3.273,3.273,0,0,0,4.619,0l8.939-8.939a3.273,3.273,0,0,0,0-4.619Zm-1.476,3.144-8.939,8.939a1.186,1.186,0,0,1-1.668,0l-4.715-4.715a1.179,1.179,0,0,1,1.668-1.668l3.144,3.144a1.044,1.044,0,0,0,1.476,0l7.368-7.368a1.179,1.179,0,0,1,1.668,1.668Z" transform="translate(-159.281 -166.244)" fill="#fff"/>
      </g>
    </g>
  </g>
</svg>
