<svg xmlns="http://www.w3.org/2000/svg" width="590.5" height="275.5"><defs><filter id="c" x="348.084" y="139.5" width="49.482" height="49.482" filterUnits="userSpaceOnUse"><feOffset dx="-3" dy="3"/><feGaussianBlur stdDeviation="3" result="blur"/><feFlood flood-color="#f4be18" flood-opacity=".212"/><feComposite operator="in" in2="blur"/><feComposite in="SourceGraphic"/></filter><filter id="d" x="356.854" y="139.27" width="49.482" height="49.482" filterUnits="userSpaceOnUse"><feOffset dx="5" dy="2"/><feGaussianBlur stdDeviation="3" result="blur-2"/><feFlood flood-color="#332700" flood-opacity=".569"/><feComposite operator="in" in2="blur-2"/><feComposite in="SourceGraphic"/></filter><filter id="e" x="346.997" y="146.374" width="19.088" height="43.378" filterUnits="userSpaceOnUse"><feOffset dx="-3" dy="3"/><feGaussianBlur stdDeviation="3" result="blur-3"/><feFlood flood-color="#f4be18" flood-opacity=".212"/><feComposite operator="in" in2="blur-3"/><feComposite in="SourceGraphic"/></filter><filter id="f" x="356.085" y="145.374" width="19.088" height="43.378" filterUnits="userSpaceOnUse"><feOffset dx="5" dy="2"/><feGaussianBlur stdDeviation="3" result="blur-4"/><feFlood flood-color="#332700" flood-opacity=".569"/><feComposite operator="in" in2="blur-4"/><feComposite in="SourceGraphic"/></filter><filter id="g" x="327.28" y="144.947" width="55.61" height="55.61" filterUnits="userSpaceOnUse"><feOffset dx="-5" dy="-5"/><feGaussianBlur stdDeviation="7.5" result="blur-5"/><feFlood flood-opacity=".404"/><feComposite operator="in" in2="blur-5"/><feComposite in="SourceGraphic"/></filter><filter id="h" x="337.28" y="154.947" width="55.61" height="55.61" filterUnits="userSpaceOnUse"><feOffset dx="5" dy="5"/><feGaussianBlur stdDeviation="7.5" result="blur-6"/><feFlood flood-color="#fff" flood-opacity=".051"/><feComposite operator="in" in2="blur-6"/><feComposite in="SourceGraphic"/></filter><filter id="i" x="339.729" y="157.395" width="50.713" height="50.713" filterUnits="userSpaceOnUse"><feOffset dx="5" dy="5"/><feGaussianBlur stdDeviation="7.5" result="blur-7"/><feFlood flood-opacity=".404"/><feComposite operator="in" in2="blur-7"/><feComposite in="SourceGraphic"/></filter><filter id="j" x="329.729" y="147.395" width="50.713" height="50.713" filterUnits="userSpaceOnUse"><feOffset dx="-5" dy="-5"/><feGaussianBlur stdDeviation="7.5" result="blur-8"/><feFlood flood-color="#fff" flood-opacity=".051"/><feComposite operator="in" in2="blur-8"/><feComposite in="SourceGraphic"/></filter><clipPath id="a"><path fill="none" d="M0 0h216v6H0z"/></clipPath><clipPath id="b"><path fill="none" d="M0 0h5v41H0z"/></clipPath></defs><g data-name="watch specs"><g data-name="Group 1227"><g data-name="watch specs" transform="translate(13721.5 -3028.5)"><g data-name="Rectangle 336" transform="rotate(146 -7159.65625 -413.92642)" fill="none" stroke="#fff"><rect width="14" height="4" rx="2" stroke="none"/><rect x=".5" y=".5" width="13" height="3" rx="1.5"/></g><g data-name="Rectangle 335" fill="none" stroke="#fff"><path d="M-13369 3255h14v4a3 3 0 01-3 3h-8a3 3 0 01-3-3v-4z" stroke="none"/><path d="M-13368 3255.5h12a.5.5 0 01.5.5v3a2.5 2.5 0 01-2.5 2.5h-8a2.5 2.5 0 01-2.5-2.5v-3a.5.5 0 01.5-.5z"/></g><g data-name="Rectangle 334" transform="rotate(34 -12001.20163 -20283.75962)" fill="none" stroke="#fff"><rect width="14" height="4" rx="2" stroke="none"/><rect x=".5" y=".5" width="13" height="3" rx="1.5"/></g><g data-name="Rectangle 333" transform="translate(-13174 3176)" fill="none" stroke="#fff"><rect width="29" height="63" rx="14.5" stroke="none"/><rect x=".5" y=".5" width="28" height="62" rx="14"/></g><g data-name="Rectangle 332" transform="translate(-13180 3170)" fill="none" stroke="#fff"><rect width="41" height="74" rx="20.5" stroke="none"/><rect x=".5" y=".5" width="40" height="73" rx="20"/></g><g data-name="Rectangle 330" fill="#070b12" stroke="#fff"><path d="M-13657 3180h489.3a2.7 2.7 0 012.7 2.7v48.6a2.7 2.7 0 01-2.7 2.7h-489.3a27 27 0 01-27-27 27 27 0 0127-27z" stroke="none"/><path d="M-13657 3180.5h489.091a2.409 2.409 0 012.409 2.409v48.182a2.409 2.409 0 01-2.409 2.409H-13657a26.5 26.5 0 01-26.5-26.5h0a26.5 26.5 0 0126.5-26.5z" fill="none"/></g><g data-name="Repeat Grid 14" transform="translate(-13659 3204)" clip-path="url(#a)"><g data-name="Ellipse 135" fill="none" stroke="#fff"><circle cx="3" cy="3" r="3" stroke="none"/><circle cx="3" cy="3" r="2.5"/></g><g data-name="Ellipse 135" transform="translate(15)" fill="none" stroke="#fff"><circle cx="3" cy="3" r="3" stroke="none"/><circle cx="3" cy="3" r="2.5"/></g><g data-name="Ellipse 135" transform="translate(30)" fill="none" stroke="#fff"><circle cx="3" cy="3" r="3" stroke="none"/><circle cx="3" cy="3" r="2.5"/></g><g data-name="Ellipse 135" transform="translate(45)" fill="none" stroke="#fff"><circle cx="3" cy="3" r="3" stroke="none"/><circle cx="3" cy="3" r="2.5"/></g><g data-name="Ellipse 135" transform="translate(60)" fill="none" stroke="#fff"><circle cx="3" cy="3" r="3" stroke="none"/><circle cx="3" cy="3" r="2.5"/></g><g data-name="Ellipse 135" transform="translate(75)" fill="none" stroke="#fff"><circle cx="3" cy="3" r="3" stroke="none"/><circle cx="3" cy="3" r="2.5"/></g><g data-name="Ellipse 135" transform="translate(90)" fill="none" stroke="#fff"><circle cx="3" cy="3" r="3" stroke="none"/><circle cx="3" cy="3" r="2.5"/></g><g data-name="Ellipse 135" transform="translate(105)" fill="none" stroke="#fff"><circle cx="3" cy="3" r="3" stroke="none"/><circle cx="3" cy="3" r="2.5"/></g><g data-name="Ellipse 135" transform="translate(120)" fill="none" stroke="#fff"><circle cx="3" cy="3" r="3" stroke="none"/><circle cx="3" cy="3" r="2.5"/></g><g data-name="Ellipse 135" transform="translate(135)" fill="none" stroke="#fff"><circle cx="3" cy="3" r="3" stroke="none"/><circle cx="3" cy="3" r="2.5"/></g><g data-name="Ellipse 135" transform="translate(150)" fill="none" stroke="#fff"><circle cx="3" cy="3" r="3" stroke="none"/><circle cx="3" cy="3" r="2.5"/></g><g data-name="Ellipse 135" transform="translate(165)" fill="none" stroke="#fff"><circle cx="3" cy="3" r="3" stroke="none"/><circle cx="3" cy="3" r="2.5"/></g><g data-name="Ellipse 135" transform="translate(180)" fill="none" stroke="#fff"><circle cx="3" cy="3" r="3" stroke="none"/><circle cx="3" cy="3" r="2.5"/></g><g data-name="Ellipse 135" transform="translate(195)" fill="none" stroke="#fff"><circle cx="3" cy="3" r="3" stroke="none"/><circle cx="3" cy="3" r="2.5"/></g><g data-name="Ellipse 135" transform="translate(210)" fill="none" stroke="#fff"><circle cx="3" cy="3" r="3" stroke="none"/><circle cx="3" cy="3" r="2.5"/></g></g><g data-name="Ellipse 136" transform="translate(-13412 3157)" fill="#070b12" stroke="#fff"><circle cx="50" cy="50" r="50" stroke="none"/><circle cx="50" cy="50" r="49.5" fill="none"/></g><g data-name="Ellipse 137" transform="translate(-13408 3161)" fill="none" stroke="#fff" stroke-width="2"><circle cx="46" cy="46" r="46" stroke="none"/><circle cx="46" cy="46" r="45"/></g><g data-name="Path 255" fill="none"><path d="M-13362 3172a35 35 0 11-35 35 35 35 0 0135-35z"/><path d="M-13362 3174c-4.45586 0-8.77736.87223-12.84448 2.59248-3.92938 1.66199-7.45873 4.04169-10.49004 7.073-3.03131 3.0313-5.41101 6.56066-7.073 10.49004-1.72025 4.06712-2.59248 8.38862-2.59248 12.84448 0 4.45586.87223 8.77736 2.59248 12.84448 1.66199 3.92938 4.04169 7.45873 7.073 10.49004 3.0313 3.03131 6.56066 5.41101 10.49004 7.073 4.06712 1.72025 8.38862 2.59248 12.84448 2.59248 4.45586 0 8.77736-.87223 12.84448-2.59248 3.92938-1.66199 7.45873-4.04169 10.49004-7.073 3.03131-3.0313 5.41101-6.56066 7.073-10.49004 1.72025-4.06712 2.59248-8.38862 2.59248-12.84448 0-4.45586-.87223-8.77736-2.59248-12.84448-1.66199-3.92938-4.04169-7.45873-7.073-10.49004-3.0313-3.03131-6.56066-5.41101-10.49004-7.073-4.06712-1.72025-8.38862-2.59248-12.84448-2.59248m0-2c19.32997 0 35 15.67003 35 35s-15.67003 35-35 35-35-15.67003-35-35 15.67003-35 35-35z" fill="#fff"/></g><g data-name="Repeat Grid 15" transform="translate(-13427 3187)" clip-path="url(#b)"><path data-name="Line 124" fill="none" stroke="#fff" stroke-linecap="round" d="M.5.5v5M4.5.5v5M.5 7.5v5M4.5 7.5v5M.5 14.5v5M4.5 14.5v5M.5 21.5v5M4.5 21.5v5M.5 28.5v5M4.5 28.5v5M.5 35.5v5M4.5 35.5v5"/></g><g data-name="Repeat Grid 16" transform="translate(-13304 3187)" clip-path="url(#b)"><path data-name="Line 124" fill="none" stroke="#fff" stroke-linecap="round" d="M.5.5v5M4.5.5v5M.5 7.5v5M4.5 7.5v5M.5 14.5v5M4.5 14.5v5M.5 21.5v5M4.5 21.5v5M.5 28.5v5M4.5 28.5v5M.5 35.5v5M4.5 35.5v5"/></g><circle cx="27.748" cy="27.748" transform="translate(-13389.163 3178.503)" fill="#263c5b" r="27.748"/><g data-name="Group 1219"><g filter="url(#c)" transform="matrix(1 0 0 1 -13721.4997 3028.49864)"><path data-name="Path 85" d="M390.85728 146.64622l.71205-.37689-30.71247 30.71248-.76934-.76933z" fill="#f4be18"/></g><g filter="url(#d)" transform="matrix(1 0 0 1 -13721.4997 3028.49864)"><path data-name="Path 84" d="M391.57 146.27l-.34648.75095-29.59808 30.72944-.76792-.76791z" fill="#f4be18" opacity=".75"/></g></g><g data-name="Group 1220"><g filter="url(#e)" transform="translate(-13721.503 3028.504)"><path data-name="Path 85" d="M359.851 152.82l.237-.45v25.378H359z" fill="#f4be18"/></g><g filter="url(#f)" transform="translate(-13721.503 3028.504)"><path data-name="Path 84" d="M360.09 152.37l.286.453.8 24.924h-1.086z" fill="#f4be18" opacity=".75"/></g></g><g filter="url(#g)" transform="translate(-13721.5 3028.497)"><circle data-name="ellipse" cx="5.305" cy="5.305" transform="translate(354.78 172.45)" fill="#f1f1f1" r="5.305"/></g><g filter="url(#h)" transform="translate(-13721.5 3028.497)"><circle data-name="ellipse" cx="5.305" cy="5.305" transform="translate(354.78 172.45)" fill="#f1f1f1" r="5.305"/></g><g filter="url(#i)" transform="translate(-13721.5 3028.497)"><circle data-name="ellipse" cx="2.856" cy="2.856" transform="rotate(180 181.47 90.305)" fill="#f1f1f1" r="2.856"/></g><g filter="url(#j)" transform="translate(-13721.5 3028.497)"><circle data-name="ellipse" cx="2.856" cy="2.856" transform="rotate(180 181.47 90.305)" fill="#f1f1f1" r="2.856"/></g><g data-name="Rectangle 331" transform="translate(-13176 3204)" fill="#070b12" stroke="#fdfdfd"><rect width="33" height="7" rx="3.5" stroke="none"/><rect x=".5" y=".5" width="32" height="6" rx="3" fill="none"/></g></g><g data-name="Group 1221"><path data-name="Line 111" fill="none" stroke="#fff" stroke-width="2" d="M27 131.834v104.167"/><path data-name="Polygon 1" d="M27.5 239.5l-6-12h12z" fill="#fff"/><path data-name="Polygon 2" d="M27.5 128.5l6 12h-12z" fill="#fff"/></g><text data-name="24.00 mm" transform="rotate(-90 117.25 103.25)" fill="#fff" font-size="14" font-family="Montserrat-Regular, Montserrat"><tspan x="0" y="0">24.00 mm</tspan></text><g data-name="Group 1222"><path data-name="Line 111" fill="none" stroke="#fff" stroke-width="2" d="M40.256 250.625h530.925"/><path data-name="Polygon 1" d="M582.501 248.5l-12 6v-12z" fill="#fff"/><path data-name="Polygon 2" d="M33.501 248.5l12-6v12z" fill="#fff"/></g><text data-name="200.00 mm" transform="translate(263.5 271.5)" fill="#fff" font-size="14" font-family="Montserrat-Regular, Montserrat"><tspan x="0" y="0">200.00 mm</tspan></text><g data-name="watches specs"><g data-name="Rectangle 339" transform="translate(33.5 61.5)" fill="none" stroke="#fff"><rect width="280" height="5" rx="2.5" stroke="none"/><rect x=".5" y=".5" width="279" height="4" rx="2"/></g><g data-name="Rectangle 345" transform="translate(303.5 68.5)" fill="#070b12" stroke="#fff"><rect width="109" height="5" rx="2.5" stroke="none"/><rect x=".5" y=".5" width="108" height="4" rx="2" fill="none"/></g><g data-name="Rectangle 344" transform="rotate(-30 407.11701 -1049.27733)" fill="#070b12" stroke="#fff" stroke-width=".5"><rect width="10" height="2.506" rx="1.253" stroke="none"/><rect x=".25" y=".25" width="9.5" height="2.006" rx="1.003" fill="none"/></g><g data-name="Group 1223" stroke="#fff"><g data-name="Rectangle 341" transform="translate(425.5 60.5)" fill="none"><rect width="143" height="5" rx="2.5" stroke="none"/><rect x=".5" y=".5" width="142" height="4" rx="2"/></g><g data-name="Rectangle 342" transform="translate(410.5 56.5)" fill="#070b12"><rect width="31" height="11" rx="5" stroke="none"/><rect x=".5" y=".5" width="30" height="10" rx="4.5" fill="none"/></g></g><g data-name="Rectangle 338" transform="translate(274.5 58.5)" fill="#070b12" stroke="#fff"><rect width="31" height="10" rx="5" stroke="none"/><rect x=".5" y=".5" width="30" height="9" rx="4.5" fill="none"/></g><g data-name="Rectangle 340" transform="translate(298.5 46.5)" fill="#070b12" stroke="#fff"><rect width="119" height="25" rx="5" stroke="none"/><rect x=".5" y=".5" width="118" height="24" rx="4.5" fill="none"/></g><g data-name="Ellipse 138" transform="translate(347.5 50.5)" fill="none" stroke="#fff"><circle cx="9" cy="9" r="9" stroke="none"/><circle cx="9" cy="9" r="8.5"/></g><g data-name="Ellipse 140" fill="none"><path d="M388.411 50.5a6.763 6.763 0 013 .726 7.8 7.8 0 012.437 1.936 9.235 9.235 0 011.638 2.853 10.426 10.426 0 010 6.969 9.235 9.235 0 01-1.638 2.853 7.8 7.8 0 01-2.437 1.936 6.729 6.729 0 01-6.006.037 7.765 7.765 0 01-2.468-1.921 9.211 9.211 0 01-1.672-2.867 10.424 10.424 0 010-7.044 9.211 9.211 0 011.669-2.868 7.765 7.765 0 012.468-1.921 6.748 6.748 0 013.009-.689z"/><path d="M388.41149 67.50045c.94461-.00568 1.84395-.23507 2.6613-.6444.81634-.40884 1.55108-.99728 2.16772-1.7219.61606-.72396 1.11446-1.5841 1.45875-2.53741.3441-.95282.53443-1.99914.53443-3.09629 0-1.09715-.19032-2.14347-.53443-3.09629-.3443-.9533-.84269-1.81345-1.45875-2.5374-.61664-.72463-1.35138-1.31307-2.16772-1.7219-.81735-.40934-1.71669-.63873-2.6613-.6444-.94596-.0057-1.84908.2135-2.67199.61487-.82392.40188-1.56722.9863-2.19232 1.71026-.62568.72463-1.13272 1.58878-1.48342 2.54905-.35089.96077-.54512 2.0173-.54512 3.12581 0 1.10851.19423 2.16504.54512 3.12581.3507.96027.85774 1.82442 1.48342 2.54905.6251.72395 1.3684 1.30838 2.19232 1.71026.8229.40138 1.72603.62057 2.67199.61488m0 1c-1.066.0072-2.08314-.23815-3.00963-.68852-.92777-.451-1.76439-1.10744-2.4678-1.92134-.70415-.81475-1.27453-1.78696-1.669-2.86813-.39469-1.0818-.61304-2.27213-.61304-3.522 0-1.2499.21835-2.44021.61305-3.52202.39446-1.08116.96484-2.05337 1.669-2.86813.7034-.8139 1.54002-1.47035 2.4678-1.92134.92648-.45037 1.94361-.69572 3.00962-.68852 1.0643.0072 2.07664.26549 2.99607.72593.91817.4598 1.74395 1.12133 2.43665 1.93608.69198.8139 1.25144 1.78103 1.6378 2.85339.38612 1.07173.59954 2.24912.59954 3.4846s-.21342 2.41287-.59955 3.4846c-.38635 1.07236-.94581 2.0395-1.63779 2.8534-.6927.81474-1.51848 1.47627-2.43665 1.93607-.91943.46045-1.93177.71874-2.99607.72593z" fill="#fff"/></g><g data-name="Ellipse 145" transform="translate(562.5 56.5)" fill="#070b12" stroke="#fff"><circle cx="6" cy="6" r="6" stroke="none"/><circle cx="6" cy="6" r="5.5" fill="none"/></g><g data-name="Rectangle 343" transform="translate(567.5 60.5)" fill="#070b12" stroke="#fff"><rect width="23" height="5" rx="2.5" stroke="none"/><rect x=".5" y=".5" width="22" height="4" rx="2" fill="none"/></g><g data-name="Ellipse 146" fill="none"><path d="M324.675 50.5a6.763 6.763 0 013 .726 7.8 7.8 0 012.437 1.936 9.235 9.235 0 011.638 2.853 10.426 10.426 0 010 6.969 9.235 9.235 0 01-1.638 2.853 7.8 7.8 0 01-2.437 1.936 6.729 6.729 0 01-6.006.037 7.765 7.765 0 01-2.468-1.921 9.211 9.211 0 01-1.672-2.867 10.424 10.424 0 010-7.044 9.211 9.211 0 011.669-2.868 7.765 7.765 0 012.468-1.921 6.748 6.748 0 013.009-.689z"/><path d="M324.67548 67.50045c.94461-.00568 1.84395-.23507 2.6613-.6444.81634-.40884 1.55108-.99728 2.16771-1.7219.61607-.72396 1.11446-1.5841 1.45875-2.53741.34411-.95282.53443-1.99914.53443-3.09629 0-1.09715-.19032-2.14347-.53443-3.09629-.34429-.9533-.84268-1.81345-1.45875-2.5374-.61663-.72463-1.35137-1.31307-2.16771-1.7219-.81735-.40934-1.71669-.63873-2.6613-.6444-.94596-.0057-1.84908.2135-2.67198.61487-.82392.40188-1.56723.9863-2.19232 1.71026-.62569.72463-1.13272 1.58878-1.48342 2.54905-.35089.96077-.54512 2.0173-.54512 3.12581 0 1.10851.19423 2.16504.54512 3.12581.3507.96027.85773 1.82442 1.48342 2.54905.6251.72395 1.3684 1.30838 2.19232 1.71026.8229.40138 1.72602.62057 2.67198.61488m0 1c-1.066.0072-2.08314-.23815-3.00962-.68852-.92777-.451-1.76439-1.10744-2.4678-1.92134-.70415-.81475-1.27453-1.78696-1.669-2.86813-.39469-1.0818-.61304-2.27213-.61304-3.522 0-1.2499.21835-2.44021.61305-3.52202.39446-1.08116.96484-2.05337 1.669-2.86813.7034-.8139 1.54002-1.47035 2.46779-1.92134.92648-.45037 1.94362-.69572 3.00962-.68852 1.0643.0072 2.07664.26549 2.99607.72593.91817.4598 1.74394 1.12133 2.43664 1.93608.69198.8139 1.25144 1.78103 1.6378 2.85339.38612 1.07173.59955 2.24912.59955 3.4846s-.21343 2.41287-.59955 3.4846c-.38636 1.07236-.94582 2.0395-1.6378 2.8534-.6927.81474-1.51847 1.47627-2.43664 1.93607-.91943.46045-1.93177.71874-2.99607.72593z" fill="#fff"/></g></g><g data-name="Group 1224"><path data-name="Line 111" fill="none" stroke="#fff" stroke-width="2" d="M310.256 27.5h93.156"/><path data-name="Polygon 1" d="M414.732 27l-12 6V21z" fill="#fff"/><path data-name="Polygon 2" d="M303.501 27l12-6v12z" fill="#fff"/></g><text data-name="50.00 mm" transform="translate(325.5 14)" fill="#fff" font-size="14" font-family="Montserrat-Regular, Montserrat"><tspan x="0" y="0">50.00 mm</tspan></text><g data-name="Group 1225"><path data-name="Line 111" fill="none" stroke="#fff" stroke-width="2" d="M27 43.667v32"/><path data-name="Polygon 1" d="M27.5 83l-6-12h12z" fill="#fff"/><path data-name="Polygon 2" d="M27.5 40l6 12h-12z" fill="#fff"/></g><text data-name="16.50 mm" transform="rotate(-90 54.5 40.5)" fill="#fff" font-size="14" font-family="Montserrat-Regular, Montserrat"><tspan x="0" y="0">16.50 mm</tspan></text></g></g></svg>