<svg id="precision" xmlns="http://www.w3.org/2000/svg" width="48" height="48" viewBox="0 0 48 48">
  <path id="Path_223" data-name="Path 223" d="M46.594,22.594H45.022A21.091,21.091,0,0,0,25.406,2.977V1.406a1.406,1.406,0,0,0-2.812,0V2.977A21.091,21.091,0,0,0,2.977,22.594H1.406a1.406,1.406,0,0,0,0,2.813H2.977A21.091,21.091,0,0,0,22.594,45.022v1.571a1.406,1.406,0,0,0,2.813,0V45.022A21.091,21.091,0,0,0,45.022,25.406h1.571a1.406,1.406,0,0,0,0-2.812ZM25.406,42.21V40.875a1.406,1.406,0,0,0-2.812,0V42.21a18.287,18.287,0,0,1-16.8-16.8H7.125a1.406,1.406,0,0,0,0-2.812H5.79a18.287,18.287,0,0,1,16.8-16.8V7.125a1.406,1.406,0,0,0,2.813,0V5.79a18.287,18.287,0,0,1,16.8,16.8H40.875a1.406,1.406,0,0,0,0,2.813H42.21A18.287,18.287,0,0,1,25.406,42.21Z" fill="#fff"/>
  <path id="Path_224" data-name="Path 224" d="M193.656,186.625h-4.219v-4.219a1.406,1.406,0,0,0-2.812,0v4.219h-4.219a1.406,1.406,0,0,0,0,2.813h4.219v4.219a1.406,1.406,0,0,0,2.813,0v-4.219h4.219a1.406,1.406,0,0,0,0-2.812Z" transform="translate(-164.031 -164.031)" fill="#fff"/>
</svg>
