<svg xmlns="http://www.w3.org/2000/svg" width="40.911" height="53" viewBox="0 0 40.911 53">
  <g id="water-resistant" transform="translate(-56.736)">
    <g id="Group_1063" data-name="Group 1063" transform="translate(56.736)">
      <g id="Group_1062" data-name="Group 1062">
        <path id="Path_230" data-name="Path 230" d="M95.358,6.818A21.432,21.432,0,0,1,80.1.5L79.6,0H74.781l-.5.5A21.432,21.432,0,0,1,59.025,6.818H56.736V30.683c0,13.2,18.964,21.662,19.774,22.017l.682.3.682-.3c.81-.355,19.774-8.816,19.774-22.017V6.818Zm-1.12,23.865c0,9.727-13.787,16.992-17.046,18.58-3.264-1.585-17.046-8.835-17.046-18.58V10.2A24.778,24.778,0,0,0,76.179,3.409H78.2A24.778,24.778,0,0,0,94.238,10.2Z" transform="translate(-56.736)" fill="#fff"/>
        <path id="Path_231" data-name="Path 231" d="M147.325,87.722c-1.084,1.389-10.589,13.739-10.589,19.8a11.932,11.932,0,0,0,23.865,0c0-6.06-9.5-18.41-10.589-19.8L148.668,86Zm9.866,19.8a8.523,8.523,0,1,1-17.046,0c0-3.275,4.781-10.85,8.523-15.928C152.418,96.669,157.191,104.243,157.191,107.521Z" transform="translate(-128.213 -76.838)" fill="#fff"/>
        <rect id="Rectangle_139" data-name="Rectangle 139" width="3.409" height="3.409" transform="translate(20.455 30.683)" fill="#fff"/>
      </g>
    </g>
  </g>
</svg>
